<?xml version="1.0" encoding="UTF-8" standalone="no"?>
<!DOCTYPE svg PUBLIC "-//W3C//DTD SVG 1.1//EN"
 "http://www.w3.org/Graphics/SVG/1.1/DTD/svg11.dtd">
<!-- Generated by graphviz version 2.38.0 (20140413.2041)
 -->
<!-- Title: controllers_diagram Pages: 1 -->
<svg width="382pt" height="343pt"
 viewBox="0.00 0.00 382.00 342.50" xmlns="http://www.w3.org/2000/svg" xmlns:xlink="http://www.w3.org/1999/xlink">
<g id="graph0" class="graph" transform="scale(1 1) rotate(0) translate(124 218.5)">
<title>controllers_diagram</title>
<polygon fill="none" stroke="none" points="-124,124 -124,-218.5 258,-218.5 258,124 -124,124"/>
<!-- _diagram_info -->
<g id="node1" class="node"><title>_diagram_info</title>
<text text-anchor="start" x="-112" y="-18.6" font-family="Times,serif" font-size="13.00">Controllers diagram</text>
<text text-anchor="start" x="-112" y="-4.6" font-family="Times,serif" font-size="13.00">Date: Mar 06 2018 &#45; 12:22</text>
<text text-anchor="start" x="-112" y="9.4" font-family="Times,serif" font-size="13.00">Migration version: 20180306151009</text>
<text text-anchor="start" x="-112" y="23.4" font-family="Times,serif" font-size="13.00">Generated by RailRoady 1.5.3</text>
<text text-anchor="start" x="-112" y="37.4" font-family="Times,serif" font-size="13.00">http://railroady.prestonlee.com</text>
</g>
<!-- ApplicationController -->
<g id="node2" class="node"><title>ApplicationController</title>
<path fill="none" stroke="black" d="M72,-60.5C72,-60.5 242,-60.5 242,-60.5 248,-60.5 254,-66.5 254,-72.5 254,-72.5 254,-157.5 254,-157.5 254,-163.5 248,-169.5 242,-169.5 242,-169.5 72,-169.5 72,-169.5 66,-169.5 60,-163.5 60,-157.5 60,-157.5 60,-72.5 60,-72.5 60,-66.5 66,-60.5 72,-60.5"/>
<text text-anchor="middle" x="157" y="-154.3" font-family="Times,serif" font-size="14.00">ApplicationController</text>
<polyline fill="none" stroke="black" points="60,-146.5 254,-146.5 "/>
<polyline fill="none" stroke="black" points="60,-122.5 254,-122.5 "/>
<polyline fill="none" stroke="black" points="60,-98.5 254,-98.5 "/>
<text text-anchor="start" x="68" y="-83.3" font-family="Times,serif" font-size="14.00">_layout</text>
<text text-anchor="start" x="68" y="-68.3" font-family="Times,serif" font-size="14.00">configure_permitted_parameters</text>
</g>
<!-- ProductsController -->
<g id="node3" class="node"><title>ProductsController</title>
<path fill="none" stroke="black" d="M132.5,119.5C132.5,119.5 227.5,119.5 227.5,119.5 233.5,119.5 239.5,113.5 239.5,107.5 239.5,107.5 239.5,38.5 239.5,38.5 239.5,32.5 233.5,26.5 227.5,26.5 227.5,26.5 132.5,26.5 132.5,26.5 126.5,26.5 120.5,32.5 120.5,38.5 120.5,38.5 120.5,107.5 120.5,107.5 120.5,113.5 126.5,119.5 132.5,119.5"/>
<text text-anchor="middle" x="180" y="41.7" font-family="Times,serif" font-size="14.00">ProductsController</text>
<polyline fill="none" stroke="black" points="120.5,49.5 239.5,49.5 "/>
<text text-anchor="start" x="128.5" y="64.7" font-family="Times,serif" font-size="14.00">index</text>
<polyline fill="none" stroke="black" points="120.5,72.5 239.5,72.5 "/>
<polyline fill="none" stroke="black" points="120.5,96.5 239.5,96.5 "/>
<text text-anchor="start" x="128.5" y="111.7" font-family="Times,serif" font-size="14.00">_layout</text>
</g>
<!-- OrdersController -->
<g id="node4" class="node"><title>OrdersController</title>
<path fill="none" stroke="black" d="M-62.5,-76C-62.5,-76 22.5,-76 22.5,-76 28.5,-76 34.5,-82 34.5,-88 34.5,-88 34.5,-202 34.5,-202 34.5,-208 28.5,-214 22.5,-214 22.5,-214 -62.5,-214 -62.5,-214 -68.5,-214 -74.5,-208 -74.5,-202 -74.5,-202 -74.5,-88 -74.5,-88 -74.5,-82 -68.5,-76 -62.5,-76"/>
<text text-anchor="middle" x="-20" y="-198.8" font-family="Times,serif" font-size="14.00">OrdersController</text>
<polyline fill="none" stroke="black" points="-74.5,-191 34.5,-191 "/>
<text text-anchor="start" x="-66.5" y="-175.8" font-family="Times,serif" font-size="14.00">create</text>
<text text-anchor="start" x="-66.5" y="-160.8" font-family="Times,serif" font-size="14.00">destroy</text>
<text text-anchor="start" x="-66.5" y="-145.8" font-family="Times,serif" font-size="14.00">empty_cart</text>
<text text-anchor="start" x="-66.5" y="-130.8" font-family="Times,serif" font-size="14.00">index</text>
<polyline fill="none" stroke="black" points="-74.5,-123 34.5,-123 "/>
<polyline fill="none" stroke="black" points="-74.5,-99 34.5,-99 "/>
<text text-anchor="start" x="-66.5" y="-83.8" font-family="Times,serif" font-size="14.00">_layout</text>
</g>
</g>
</svg>
