<?xml version="1.0" encoding="UTF-8" standalone="no"?>
<!DOCTYPE svg PUBLIC "-//W3C//DTD SVG 1.1//EN"
 "http://www.w3.org/Graphics/SVG/1.1/DTD/svg11.dtd">
<!-- Generated by graphviz version 2.38.0 (20140413.2041)
 -->
<!-- Title: models_diagram Pages: 1 -->
<svg width="467pt" height="230pt"
 viewBox="0.00 0.00 467.34 230.00" xmlns="http://www.w3.org/2000/svg" xmlns:xlink="http://www.w3.org/1999/xlink">
<g id="graph0" class="graph" transform="scale(1 1) rotate(0) translate(4 226)">
<title>models_diagram</title>
<polygon fill="none" stroke="none" points="-4,4 -4,-226 463.343,-226 463.343,4 -4,4"/>
<!-- _diagram_info -->
<g id="node1" class="node"><title>_diagram_info</title>
<text text-anchor="start" x="8" y="-207.6" font-family="Times,serif" font-size="13.00">Models diagram</text>
<text text-anchor="start" x="8" y="-193.6" font-family="Times,serif" font-size="13.00">Date: Mar 06 2018 &#45; 12:22</text>
<text text-anchor="start" x="8" y="-179.6" font-family="Times,serif" font-size="13.00">Migration version: 20180306151009</text>
<text text-anchor="start" x="8" y="-165.6" font-family="Times,serif" font-size="13.00">Generated by RailRoady 1.5.3</text>
<text text-anchor="start" x="8" y="-151.6" font-family="Times,serif" font-size="13.00">http://railroady.prestonlee.com</text>
</g>
<!-- Order -->
<g id="node2" class="node"><title>Order</title>
<ellipse fill="none" stroke="black" cx="259" cy="-18" rx="31.3957" ry="18"/>
<text text-anchor="middle" x="259" y="-14.3" font-family="Times,serif" font-size="14.00">Order</text>
</g>
<!-- ApplicationRecord -->
<g id="node3" class="node"><title>ApplicationRecord</title>
<ellipse fill="none" stroke="black" cx="382" cy="-183" rx="77.1866" ry="18"/>
<text text-anchor="middle" x="382" y="-179.3" font-family="Times,serif" font-size="14.00">ApplicationRecord</text>
</g>
<!-- Billing -->
<g id="node4" class="node"><title>Billing</title>
<ellipse fill="none" stroke="black" cx="259" cy="-90" rx="35.194" ry="18"/>
<text text-anchor="middle" x="259" y="-86.3" font-family="Times,serif" font-size="14.00">Billing</text>
</g>
<!-- Billing&#45;&gt;Order -->
<g id="edge1" class="edge"><title>Billing&#45;&gt;Order</title>
<path fill="none" stroke="#f95fc1" d="M259,-63.6398C259,-58.0629 259,-52.1319 259,-46.4761"/>
<ellipse fill="none" stroke="#f95fc1" cx="259" cy="-67.6966" rx="4" ry="4"/>
<polygon fill="#f95fc1" stroke="#f95fc1" points="259,-46.1043 263.5,-36.1043 259,-41.1043 259,-36.1043 259,-36.1043 259,-36.1043 259,-41.1043 254.5,-36.1044 259,-46.1043 259,-46.1043"/>
</g>
<!-- User -->
<g id="node5" class="node"><title>User</title>
<ellipse fill="none" stroke="black" cx="259" cy="-183" rx="27.0966" ry="18"/>
<text text-anchor="middle" x="259" y="-179.3" font-family="Times,serif" font-size="14.00">User</text>
</g>
<!-- User&#45;&gt;Order -->
<g id="edge2" class="edge"><title>User&#45;&gt;Order</title>
<path fill="none" stroke="#950790" d="M240.771,-160.795C224.137,-138.763 203.734,-103.208 215,-72 219.209,-60.342 227.221,-49.4366 235.268,-40.5853"/>
<ellipse fill="none" stroke="#950790" cx="243.306" cy="-164.03" rx="4.00002" ry="4.00002"/>
<polygon fill="#950790" stroke="#950790" points="235.298,-40.5538 245.487,-36.498 238.776,-36.961 242.253,-33.3683 242.253,-33.3683 242.253,-33.3683 238.776,-36.961 239.02,-30.2386 235.298,-40.5538 235.298,-40.5538"/>
</g>
<!-- User&#45;&gt;Billing -->
<g id="edge4" class="edge"><title>User&#45;&gt;Billing</title>
<path fill="none" stroke="#3d314b" d="M259,-156.729C259,-144.725 259,-130.362 259,-118.129"/>
<ellipse fill="none" stroke="#3d314b" cx="259" cy="-160.884" rx="4" ry="4"/>
<polygon fill="#3d314b" stroke="#3d314b" points="259,-118.04 263.5,-108.04 259,-113.04 259,-108.04 259,-108.04 259,-108.04 259,-113.04 254.5,-108.04 259,-118.04 259,-118.04"/>
</g>
<!-- Product -->
<g id="node6" class="node"><title>Product</title>
<ellipse fill="none" stroke="black" cx="350" cy="-90" rx="38.1938" ry="18"/>
<text text-anchor="middle" x="350" y="-86.3" font-family="Times,serif" font-size="14.00">Product</text>
</g>
<!-- User&#45;&gt;Product -->
<g id="edge3" class="edge"><title>User&#45;&gt;Product</title>
<path fill="none" stroke="#fd2402" d="M280.187,-160.07C285.339,-154.785 290.848,-149.172 296,-144 305.948,-134.012 317.045,-123.085 326.579,-113.761"/>
<polygon fill="#fd2402" stroke="#fd2402" points="279.948,-160.317 269.752,-164.353 276.463,-163.903 272.979,-167.489 272.979,-167.489 272.979,-167.489 276.463,-163.903 276.207,-170.625 279.948,-160.317 279.948,-160.317"/>
<polygon fill="#fd2402" stroke="#fd2402" points="326.682,-113.66 336.982,-109.896 330.26,-110.168 333.838,-106.675 333.838,-106.675 333.838,-106.675 330.26,-110.168 330.695,-103.455 326.682,-113.66 326.682,-113.66"/>
</g>
<!-- Product&#45;&gt;Order -->
<g id="edge5" class="edge"><title>Product&#45;&gt;Order</title>
<path fill="none" stroke="#d25e6d" d="M324.072,-69.0553C311.856,-59.6581 297.314,-48.472 285.078,-39.0602"/>
<ellipse fill="none" stroke="#d25e6d" cx="327.531" cy="-71.7159" rx="4.00002" ry="4.00002"/>
<polygon fill="#d25e6d" stroke="#d25e6d" points="284.959,-38.9687 279.777,-29.3048 280.996,-35.9201 277.033,-32.8716 277.033,-32.8716 277.033,-32.8716 280.996,-35.9201 274.289,-36.4384 284.959,-38.9687 284.959,-38.9687"/>
</g>
</g>
</svg>
