<?xml version="1.0" encoding="UTF-8" standalone="no"?>
<!DOCTYPE svg PUBLIC "-//W3C//DTD SVG 1.1//EN"
 "http://www.w3.org/Graphics/SVG/1.1/DTD/svg11.dtd">
<!-- Generated by graphviz version 2.38.0 (20140413.2041)
 -->
<!-- Title: models_diagram Pages: 1 -->
<svg width="781pt" height="626pt"
 viewBox="0.00 0.00 781.00 626.00" xmlns="http://www.w3.org/2000/svg" xmlns:xlink="http://www.w3.org/1999/xlink">
<g id="graph0" class="graph" transform="scale(1 1) rotate(0) translate(4 622)">
<title>models_diagram</title>
<polygon fill="none" stroke="none" points="-4,4 -4,-622 777,-622 777,4 -4,4"/>
<!-- _diagram_info -->
<g id="node1" class="node"><title>_diagram_info</title>
<text text-anchor="start" x="8" y="-521.6" font-family="Times,serif" font-size="13.00">Models diagram</text>
<text text-anchor="start" x="8" y="-507.6" font-family="Times,serif" font-size="13.00">Date: Mar 06 2018 &#45; 12:22</text>
<text text-anchor="start" x="8" y="-493.6" font-family="Times,serif" font-size="13.00">Migration version: 20180306151009</text>
<text text-anchor="start" x="8" y="-479.6" font-family="Times,serif" font-size="13.00">Generated by RailRoady 1.5.3</text>
<text text-anchor="start" x="8" y="-465.6" font-family="Times,serif" font-size="13.00">http://railroady.prestonlee.com</text>
</g>
<!-- Order -->
<g id="node2" class="node"><title>Order</title>
<path fill="none" stroke="black" d="M279,-0.5C279,-0.5 499,-0.5 499,-0.5 505,-0.5 511,-6.5 511,-12.5 511,-12.5 511,-139.5 511,-139.5 511,-145.5 505,-151.5 499,-151.5 499,-151.5 279,-151.5 279,-151.5 273,-151.5 267,-145.5 267,-139.5 267,-139.5 267,-12.5 267,-12.5 267,-6.5 273,-0.5 279,-0.5"/>
<text text-anchor="middle" x="389" y="-136.3" font-family="Times,serif" font-size="14.00">Order</text>
<polyline fill="none" stroke="black" points="267,-128.5 511,-128.5 "/>
<text text-anchor="start" x="275" y="-113.3" font-family="Times,serif" font-size="14.00">id :bigint</text>
<text text-anchor="start" x="275" y="-98.3" font-family="Times,serif" font-size="14.00">payed :boolean</text>
<text text-anchor="start" x="275" y="-83.3" font-family="Times,serif" font-size="14.00">user_id :bigint</text>
<text text-anchor="start" x="275" y="-68.3" font-family="Times,serif" font-size="14.00">product_id :bigint</text>
<text text-anchor="start" x="275" y="-53.3" font-family="Times,serif" font-size="14.00">created_at :timestamp without time zone</text>
<text text-anchor="start" x="275" y="-38.3" font-family="Times,serif" font-size="14.00">updated_at :timestamp without time zone</text>
<text text-anchor="start" x="275" y="-23.3" font-family="Times,serif" font-size="14.00">quantity :integer</text>
<text text-anchor="start" x="275" y="-8.3" font-family="Times,serif" font-size="14.00">billing_id :bigint</text>
</g>
<!-- ApplicationRecord -->
<g id="node3" class="node"><title>ApplicationRecord</title>
<ellipse fill="none" stroke="black" cx="641" cy="-497" rx="77.1866" ry="18"/>
<text text-anchor="middle" x="641" y="-493.3" font-family="Times,serif" font-size="14.00">ApplicationRecord</text>
</g>
<!-- Billing -->
<g id="node4" class="node"><title>Billing</title>
<path fill="none" stroke="black" d="M279,-188.5C279,-188.5 499,-188.5 499,-188.5 505,-188.5 511,-194.5 511,-200.5 511,-200.5 511,-327.5 511,-327.5 511,-333.5 505,-339.5 499,-339.5 499,-339.5 279,-339.5 279,-339.5 273,-339.5 267,-333.5 267,-327.5 267,-327.5 267,-200.5 267,-200.5 267,-194.5 273,-188.5 279,-188.5"/>
<text text-anchor="middle" x="389" y="-324.3" font-family="Times,serif" font-size="14.00">Billing</text>
<polyline fill="none" stroke="black" points="267,-316.5 511,-316.5 "/>
<text text-anchor="start" x="275" y="-301.3" font-family="Times,serif" font-size="14.00">id :bigint</text>
<text text-anchor="start" x="275" y="-286.3" font-family="Times,serif" font-size="14.00">code :character varying</text>
<text text-anchor="start" x="275" y="-271.3" font-family="Times,serif" font-size="14.00">payment_method :character varying</text>
<text text-anchor="start" x="275" y="-256.3" font-family="Times,serif" font-size="14.00">amount :numeric(5,2)</text>
<text text-anchor="start" x="275" y="-241.3" font-family="Times,serif" font-size="14.00">currency :character varying</text>
<text text-anchor="start" x="275" y="-226.3" font-family="Times,serif" font-size="14.00">user_id :bigint</text>
<text text-anchor="start" x="275" y="-211.3" font-family="Times,serif" font-size="14.00">created_at :timestamp without time zone</text>
<text text-anchor="start" x="275" y="-196.3" font-family="Times,serif" font-size="14.00">updated_at :timestamp without time zone</text>
</g>
<!-- Billing&#45;&gt;Order -->
<g id="edge1" class="edge"><title>Billing&#45;&gt;Order</title>
<path fill="none" stroke="#840ba0" d="M389,-180.406C389,-174.261 389,-168.056 389,-161.898"/>
<ellipse fill="none" stroke="#840ba0" cx="389" cy="-184.418" rx="4" ry="4"/>
<polygon fill="#840ba0" stroke="#840ba0" points="389,-161.598 393.5,-151.598 389,-156.598 389,-151.598 389,-151.598 389,-151.598 389,-156.598 384.5,-151.598 389,-161.598 389,-161.598"/>
</g>
<!-- User -->
<g id="node5" class="node"><title>User</title>
<path fill="none" stroke="black" d="M244.5,-376.5C244.5,-376.5 533.5,-376.5 533.5,-376.5 539.5,-376.5 545.5,-382.5 545.5,-388.5 545.5,-388.5 545.5,-605.5 545.5,-605.5 545.5,-611.5 539.5,-617.5 533.5,-617.5 533.5,-617.5 244.5,-617.5 244.5,-617.5 238.5,-617.5 232.5,-611.5 232.5,-605.5 232.5,-605.5 232.5,-388.5 232.5,-388.5 232.5,-382.5 238.5,-376.5 244.5,-376.5"/>
<text text-anchor="middle" x="389" y="-602.3" font-family="Times,serif" font-size="14.00">User</text>
<polyline fill="none" stroke="black" points="232.5,-594.5 545.5,-594.5 "/>
<text text-anchor="start" x="240.5" y="-579.3" font-family="Times,serif" font-size="14.00">id :bigint</text>
<text text-anchor="start" x="240.5" y="-564.3" font-family="Times,serif" font-size="14.00">email :character varying</text>
<text text-anchor="start" x="240.5" y="-549.3" font-family="Times,serif" font-size="14.00">encrypted_password :character varying</text>
<text text-anchor="start" x="240.5" y="-534.3" font-family="Times,serif" font-size="14.00">reset_password_token :character varying</text>
<text text-anchor="start" x="240.5" y="-519.3" font-family="Times,serif" font-size="14.00">reset_password_sent_at :timestamp without time zone</text>
<text text-anchor="start" x="240.5" y="-504.3" font-family="Times,serif" font-size="14.00">remember_created_at :timestamp without time zone</text>
<text text-anchor="start" x="240.5" y="-489.3" font-family="Times,serif" font-size="14.00">sign_in_count :integer</text>
<text text-anchor="start" x="240.5" y="-474.3" font-family="Times,serif" font-size="14.00">current_sign_in_at :timestamp without time zone</text>
<text text-anchor="start" x="240.5" y="-459.3" font-family="Times,serif" font-size="14.00">last_sign_in_at :timestamp without time zone</text>
<text text-anchor="start" x="240.5" y="-444.3" font-family="Times,serif" font-size="14.00">current_sign_in_ip :inet</text>
<text text-anchor="start" x="240.5" y="-429.3" font-family="Times,serif" font-size="14.00">last_sign_in_ip :inet</text>
<text text-anchor="start" x="240.5" y="-414.3" font-family="Times,serif" font-size="14.00">created_at :timestamp without time zone</text>
<text text-anchor="start" x="240.5" y="-399.3" font-family="Times,serif" font-size="14.00">updated_at :timestamp without time zone</text>
<text text-anchor="start" x="240.5" y="-384.3" font-family="Times,serif" font-size="14.00">name :character varying</text>
</g>
<!-- User&#45;&gt;Order -->
<g id="edge2" class="edge"><title>User&#45;&gt;Order</title>
<path fill="none" stroke="#eafc38" d="M271.403,-369.123C266.174,-359.668 261.616,-349.93 258,-340 234.883,-276.523 229.597,-249.295 258,-188 262.701,-177.854 268.838,-168.299 275.887,-159.378"/>
<ellipse fill="none" stroke="#eafc38" cx="273.534" cy="-372.828" rx="4.00002" ry="4.00002"/>
<polygon fill="#eafc38" stroke="#eafc38" points="275.89,-159.375 285.757,-154.589 279.097,-155.539 282.305,-151.703 282.305,-151.703 282.305,-151.703 279.097,-155.539 278.852,-148.816 275.89,-159.375 275.89,-159.375"/>
</g>
<!-- User&#45;&gt;Billing -->
<g id="edge4" class="edge"><title>User&#45;&gt;Billing</title>
<path fill="none" stroke="#433809" d="M389,-368.22C389,-361.967 389,-355.762 389,-349.681"/>
<ellipse fill="none" stroke="#433809" cx="389" cy="-372.44" rx="4" ry="4"/>
<polygon fill="#433809" stroke="#433809" points="389,-349.575 393.5,-339.575 389,-344.575 389,-339.575 389,-339.575 389,-339.575 389,-344.575 384.5,-339.576 389,-349.575 389,-349.575"/>
</g>
<!-- Product -->
<g id="node6" class="node"><title>Product</title>
<path fill="none" stroke="black" d="M541,-203.5C541,-203.5 761,-203.5 761,-203.5 767,-203.5 773,-209.5 773,-215.5 773,-215.5 773,-312.5 773,-312.5 773,-318.5 767,-324.5 761,-324.5 761,-324.5 541,-324.5 541,-324.5 535,-324.5 529,-318.5 529,-312.5 529,-312.5 529,-215.5 529,-215.5 529,-209.5 535,-203.5 541,-203.5"/>
<text text-anchor="middle" x="651" y="-309.3" font-family="Times,serif" font-size="14.00">Product</text>
<polyline fill="none" stroke="black" points="529,-301.5 773,-301.5 "/>
<text text-anchor="start" x="537" y="-286.3" font-family="Times,serif" font-size="14.00">id :bigint</text>
<text text-anchor="start" x="537" y="-271.3" font-family="Times,serif" font-size="14.00">name :character varying</text>
<text text-anchor="start" x="537" y="-256.3" font-family="Times,serif" font-size="14.00">photo :character varying</text>
<text text-anchor="start" x="537" y="-241.3" font-family="Times,serif" font-size="14.00">price :integer</text>
<text text-anchor="start" x="537" y="-226.3" font-family="Times,serif" font-size="14.00">created_at :timestamp without time zone</text>
<text text-anchor="start" x="537" y="-211.3" font-family="Times,serif" font-size="14.00">updated_at :timestamp without time zone</text>
</g>
<!-- User&#45;&gt;Product -->
<g id="edge3" class="edge"><title>User&#45;&gt;Product</title>
<path fill="none" stroke="#a60ae4" d="M532.226,-369.721C547.202,-356.517 561.963,-343.502 575.717,-331.376"/>
<polygon fill="#a60ae4" stroke="#a60ae4" points="532.106,-369.827 521.629,-373.065 528.355,-373.133 524.605,-376.44 524.605,-376.44 524.605,-376.44 528.355,-373.133 527.581,-379.816 532.106,-369.827 532.106,-369.827"/>
<polygon fill="#a60ae4" stroke="#a60ae4" points="575.748,-331.348 586.225,-328.11 579.499,-328.041 583.249,-324.735 583.249,-324.735 583.249,-324.735 579.499,-328.041 580.273,-321.359 575.748,-331.348 575.748,-331.348"/>
</g>
<!-- Product&#45;&gt;Order -->
<g id="edge5" class="edge"><title>Product&#45;&gt;Order</title>
<path fill="none" stroke="#1d627c" d="M560.439,-198.708C541.729,-185.426 521.799,-171.277 502.395,-157.501"/>
<ellipse fill="none" stroke="#1d627c" cx="563.759" cy="-201.065" rx="4.00002" ry="4.00002"/>
<polygon fill="#1d627c" stroke="#1d627c" points="502.27,-157.413 496.72,-147.955 498.193,-154.518 494.115,-151.624 494.115,-151.624 494.115,-151.624 498.193,-154.518 491.51,-155.293 502.27,-157.413 502.27,-157.413"/>
</g>
</g>
</svg>
